<?xml version="1.0" encoding="UTF-8"?><svg id="Layer_1" xmlns="http://www.w3.org/2000/svg" viewBox="0 0 27.18 25.99"><defs><style>.cls-1{fill:#fff;}.cls-2{font-family:AndaleMono, 'Andale Mono';font-size:12px;}</style></defs><g><path class="cls-1" d="M17.69,25.49c-.11,0-.22,0-.34-.03l-11.15-1.94c-.68-.12-1.25-.59-1.5-1.23L.63,11.73c-.25-.66-.13-1.41,.32-1.95L7.97,1.22c.38-.46,.93-.72,1.52-.72,.11,0,.22,0,.34,.03l11.15,1.94c.68,.12,1.25,.59,1.5,1.23l4.07,10.56c.25,.66,.13,1.41-.31,1.96l-7.03,8.56c-.37,.46-.93,.72-1.52,.72Z"/><path d="M9.49,1h0c.08,0,.17,0,.25,.02l11.15,1.94c.5,.09,.93,.44,1.12,.92l4.07,10.56c.19,.49,.1,1.05-.23,1.46l-7.03,8.56c-.28,.34-.69,.54-1.13,.54-.08,0-.17,0-.25-.02l-11.15-1.94c-.5-.09-.93-.44-1.12-.92L1.1,11.55c-.19-.49-.1-1.05,.23-1.46L8.36,1.54c.28-.34,.69-.54,1.13-.54m0-1c-.73,0-1.43,.33-1.91,.9L.56,9.46C0,10.15-.15,11.09,.17,11.91l4.07,10.56c.31,.81,1.03,1.39,1.88,1.54l11.15,1.94c.14,.02,.28,.04,.42,.04,.73,0,1.43-.33,1.91-.9l7.03-8.56c.56-.69,.71-1.62,.39-2.45L22.95,3.52c-.31-.81-1.03-1.39-1.88-1.54L9.92,.04c-.14-.02-.28-.04-.42-.04h0Z"/></g><text class="cls-2" transform="translate(7.66 16.84)"><tspan x="0" y="0">$&gt;</tspan></text></svg>